<svg xmlns="http://www.w3.org/2000/svg" viewBox="0 0 64 64" width="64" height="64"><rect width="64" height="64" rx="14" fill="#0E1726"/><g transform="translate(8.748,53.620) scale(0.06160,-0.06160)"><path d="M693 351Q693 248 647.5 168.0Q602 88 518.5 44.0Q435 0 325 0H62V702H325Q436 702 519.0 658.0Q602 614 647.5 534.5Q693 455 693 351ZM519 351Q519 448 465.0 502.0Q411 556 314 556H233V148H314Q411 148 465.0 201.0Q519 254 519 351Z" fill="#FFFFFF"/></g><circle cx="33.76" cy="26.39" r="3.68" fill="#FF6B57"/><path d="M 27.14 37.24 L 27.14 33.11 A 6.62 6.62 0 0 1 40.38 33.11 L 40.38 37.24 Z" fill="#FF6B57"/></svg>