<svg xmlns="http://www.w3.org/2000/svg" viewBox="0 0 128 128" width="128" height="128"><g transform="translate(13.452,111.000) scale(0.13390,-0.13390)"><path d="M693 351Q693 248 647.5 168.0Q602 88 518.5 44.0Q435 0 325 0H62V702H325Q436 702 519.0 658.0Q602 614 647.5 534.5Q693 455 693 351ZM519 351Q519 448 465.0 502.0Q411 556 314 556H233V148H314Q411 148 465.0 201.0Q519 254 519 351Z" fill="#0E1726"/></g><circle cx="67.82" cy="51.80" r="8.00" fill="#FF6B57"/><path d="M 53.42 75.40 L 53.42 66.41 A 14.40 14.40 0 0 1 82.22 66.41 L 82.22 75.40 Z" fill="#FF6B57"/></svg>