<svg xmlns="http://www.w3.org/2000/svg" viewBox="0 0 128 128" width="128" height="128"><g transform="translate(13.452,111.000) scale(0.13390,-0.13390)"><path d="M693 351Q693 248 647.5 168.0Q602 88 518.5 44.0Q435 0 325 0H62V702H325Q436 702 519.0 658.0Q602 614 647.5 534.5Q693 455 693 351ZM519 351Q519 448 465.0 502.0Q411 556 314 556H233V148H314Q411 148 465.0 201.0Q519 254 519 351Z" fill="#0E1726"/></g><circle cx="59.82" cy="52.84" r="7.20" fill="#0E1726"/><path d="M 46.86 74.08 L 46.86 65.99 A 12.96 12.96 0 0 1 72.78 65.99 L 72.78 74.08 Z" fill="#0E1726"/><path d="M 74.62 52.20 A 10.00 10.00 0 0 1 74.62 72.20" fill="none" stroke="#0E1726" stroke-width="2.60" stroke-linecap="round"/><path d="M 74.62 45.20 A 17.00 17.00 0 0 1 74.62 79.20" fill="none" stroke="#0E1726" stroke-width="2.60" stroke-linecap="round"/></svg>