<svg xmlns="http://www.w3.org/2000/svg" viewBox="0 0 220 220" width="220" height="220"><rect width="220" height="220" rx="48" fill="#0E1726"/><g transform="translate(43.276,172.040) scale(0.17675,-0.17675)"><path d="M693 351Q693 248 647.5 168.0Q602 88 518.5 44.0Q435 0 325 0H62V702H325Q436 702 519.0 658.0Q602 614 647.5 534.5Q693 455 693 351ZM519 351Q519 448 465.0 502.0Q411 556 314 556H233V148H314Q411 148 465.0 201.0Q519 254 519 351Z" fill="#FFFFFF"/></g><circle cx="104.49" cy="95.27" r="9.50" fill="#FF6B57"/><path d="M 87.38 123.31 L 87.38 112.62 A 17.11 17.11 0 0 1 121.60 112.62 L 121.60 123.31 Z" fill="#FF6B57"/><path d="M 124.02 94.42 A 13.20 13.20 0 0 1 124.02 120.82" fill="none" stroke="#6E8BFF" stroke-width="3.43" stroke-linecap="round"/><path d="M 124.02 85.18 A 22.44 22.44 0 0 1 124.02 130.06" fill="none" stroke="#6E8BFF" stroke-width="3.43" stroke-linecap="round"/></svg>