<svg xmlns="http://www.w3.org/2000/svg" viewBox="0 0 578 120" width="578" height="120"><g transform="translate(13.495,103.240) scale(0.12319,-0.12319)"><path d="M693 351Q693 248 647.5 168.0Q602 88 518.5 44.0Q435 0 325 0H62V702H325Q436 702 519.0 658.0Q602 614 647.5 534.5Q693 455 693 351ZM519 351Q519 448 465.0 502.0Q411 556 314 556H233V148H314Q411 148 465.0 201.0Q519 254 519 351Z" fill="#0E1726"/></g><circle cx="56.16" cy="49.73" r="6.62" fill="#FF6B57"/><path d="M 44.24 69.27 L 44.24 61.83 A 11.92 11.92 0 0 1 68.08 61.83 L 68.08 69.27 Z" fill="#FF6B57"/><path d="M 69.77 49.14 A 9.20 9.20 0 0 1 69.77 67.54" fill="none" stroke="#2D5BFF" stroke-width="2.39" stroke-linecap="round"/><path d="M 69.77 42.70 A 15.64 15.64 0 0 1 69.77 73.98" fill="none" stroke="#2D5BFF" stroke-width="2.39" stroke-linecap="round"/><g fill="#0E1726">
<g transform="translate(130.000,80.400) scale(0.06000,-0.06000)"><path d="M671 345Q671 239 625.5 161.0Q580 83 496.5 41.5Q413 0 302 0H75V695H302Q413 695 496.5 652.5Q580 610 625.5 530.5Q671 451 671 345ZM554 345Q554 466 489.0 534.0Q424 602 302 602H189V93H302Q424 93 489.0 159.0Q554 225 554 345Z"/></g>
<g transform="translate(172.140,80.400) scale(0.06000,-0.06000)"><path d="M576 233H155Q160 167 204.0 127.0Q248 87 312 87Q404 87 442 164H565Q540 88 474.5 39.5Q409 -9 312 -9Q233 -9 170.5 26.5Q108 62 72.5 126.5Q37 191 37 276Q37 361 71.5 425.5Q106 490 168.5 525.0Q231 560 312 560Q390 560 451.0 526.0Q512 492 546.0 430.5Q580 369 580 289Q580 258 576 233ZM461 325Q460 388 416.0 426.0Q372 464 307 464Q248 464 206.0 426.5Q164 389 156 325Z"/></g>
<g transform="translate(208.760,80.400) scale(0.06000,-0.06000)"><path d="M969 325V0H856V308Q856 382 819.0 421.5Q782 461 718 461Q654 461 616.5 421.5Q579 382 579 308V0H466V308Q466 382 429.0 421.5Q392 461 328 461Q264 461 226.5 421.5Q189 382 189 308V0H75V551H189V488Q217 522 260.0 541.0Q303 560 352 560Q418 560 470.0 532.0Q522 504 550 451Q575 501 628.0 530.5Q681 560 742 560Q807 560 858.5 533.0Q910 506 939.5 453.0Q969 400 969 325Z"/></g>
<g transform="translate(270.700,80.400) scale(0.06000,-0.06000)"><path d="M38 276Q38 360 75.0 425.0Q112 490 176.0 525.0Q240 560 319 560Q398 560 462.0 525.0Q526 490 563.0 425.0Q600 360 600 276Q600 192 562.0 127.0Q524 62 458.5 26.5Q393 -9 314 -9Q236 -9 173.0 26.5Q110 62 74.0 126.5Q38 191 38 276ZM483 276Q483 336 460.0 377.5Q437 419 399.0 440.0Q361 461 317 461Q273 461 235.5 440.0Q198 419 176.0 377.5Q154 336 154 276Q154 187 199.5 138.5Q245 90 314 90Q358 90 396.5 111.0Q435 132 459.0 174.0Q483 216 483 276Z"/></g>
<g transform="translate(308.580,80.400) scale(0.06000,-0.06000)"><path d="M307 560Q407 560 472.5 512.5Q538 465 561 377H438Q423 418 390.0 441.0Q357 464 307 464Q237 464 195.5 414.5Q154 365 154 276Q154 187 195.5 137.0Q237 87 307 87Q406 87 438 174H561Q537 90 471.0 40.5Q405 -9 307 -9Q228 -9 167.0 26.5Q106 62 71.5 126.5Q37 191 37 276Q37 361 71.5 425.5Q106 490 167.0 525.0Q228 560 307 560Z"/></g>
<g transform="translate(344.180,80.400) scale(0.06000,-0.06000)"><path d="M354 560V442H325Q258 442 223.5 408.0Q189 374 189 290V0H75V551H189V471Q214 513 255.5 536.5Q297 560 354 560Z"/></g>
<g transform="translate(366.820,80.400) scale(0.06000,-0.06000)"><path d="M297 560Q362 560 410.5 534.5Q459 509 488 471V551H603V0H488V82Q459 43 409.0 17.0Q359 -9 295 -9Q224 -9 165.0 27.5Q106 64 71.5 129.5Q37 195 37 278Q37 361 71.5 425.0Q106 489 165.5 524.5Q225 560 297 560ZM321 461Q277 461 239.0 439.5Q201 418 177.5 376.5Q154 335 154 278Q154 221 177.5 178.0Q201 135 239.5 112.5Q278 90 321 90Q365 90 403.0 112.0Q441 134 464.5 176.5Q488 219 488 276Q488 333 464.5 375.0Q441 417 403.0 439.0Q365 461 321 461Z"/></g>
<g transform="translate(407.100,80.400) scale(0.06000,-0.06000)"><path d="M208 458V153Q208 122 222.5 108.5Q237 95 272 95H342V0H252Q175 0 134.0 36.0Q93 72 93 153V458H28V551H93V688H208V551H342V458Z"/></g>
<g transform="translate(429.020,80.400) scale(0.06000,-0.06000)"><path d="M60 697Q60 728 81.0 749.0Q102 770 133 770Q163 770 184.0 749.0Q205 728 205 697Q205 666 184.0 645.0Q163 624 133 624Q102 624 81.0 645.0Q60 666 60 697ZM189 551V0H75V551Z"/></g>
<g transform="translate(444.460,80.400) scale(0.06000,-0.06000)"><path d="M307 560Q407 560 472.5 512.5Q538 465 561 377H438Q423 418 390.0 441.0Q357 464 307 464Q237 464 195.5 414.5Q154 365 154 276Q154 187 195.5 137.0Q237 87 307 87Q406 87 438 174H561Q537 90 471.0 40.5Q405 -9 307 -9Q228 -9 167.0 26.5Q106 62 71.5 126.5Q37 191 37 276Q37 361 71.5 425.5Q106 490 167.0 525.0Q228 560 307 560Z"/></g>
</g><g fill="#2D5BFF">
<g transform="translate(494.060,80.400) scale(0.06000,-0.06000)"><path d="M499 124H237L195 0H16L270 702H468L722 0H541ZM455 256 368 513 282 256Z"/></g>
<g transform="translate(538.080,80.400) scale(0.06000,-0.06000)"><path d="M233 702V0H62V702Z"/></g>
</g></svg>